<svg width="31" height="31" viewBox="0 0 31 31" fill="none" xmlns="http://www.w3.org/2000/svg">
<path d="M3.94268 2.48002C2.79985 2.58734 1.88209 3.49704 1.85986 4.60158C2.10953 12.0879 4.47962 18.1156 8.78643 22.2425C13.0932 26.3694 19.2757 28.5331 26.9505 28.52C28.2099 28.5256 29.0778 27.4615 29.1011 26.3887C29.1139 24.6199 29.1276 22.8468 29.1399 21.08C29.1399 19.8457 28.0212 19.0447 26.9892 19.0359C25.3996 19.0421 23.1832 18.4644 21.3899 18.0188C21.0837 17.9448 20.7422 18.0395 20.518 18.2609L17.5633 21.1284C14.0039 18.991 12.3735 17.416 10.1814 13.9694L13.1167 11.131C13.3543 10.9014 13.4545 10.5393 13.3686 10.2203C12.8853 8.41105 12.0886 6.05365 12.2158 4.39816C12.0899 3.10573 10.8635 2.4731 9.8908 2.48004C7.82034 2.48001 5.71516 2.48006 3.94268 2.48002H3.94268ZM3.95235 4.34002C5.94373 4.34002 7.94095 4.34002 9.92953 4.34002C10.2299 4.34572 10.2299 4.34572 10.3752 4.62096C10.3199 6.61639 10.9749 8.63226 11.4214 10.1816L8.34079 13.1847C8.04068 13.4761 7.97707 13.9807 8.19547 14.3375C10.8453 18.6328 12.8103 20.5387 17.2242 23.1144C17.5714 23.3162 18.0496 23.2579 18.3383 22.9787L21.448 19.9466C23.1346 20.3727 25.1582 20.9033 26.9989 20.8959C27.1323 20.921 27.2638 21.11 27.2798 21.1284L27.2411 26.3791C27.1764 26.5304 27.2799 26.6657 26.8923 26.66C19.5957 26.66 13.9652 24.6237 10.0748 20.8959C6.17392 17.158 3.95767 11.6648 3.71985 4.53377C3.71986 4.34573 3.71986 4.34573 3.95235 4.34002Z" fill="#69A54D"/>
</svg>
