<svg width="37" height="37" viewBox="0 0 37 37" fill="none" xmlns="http://www.w3.org/2000/svg">
<path d="M18.5 6.29004C11.7698 6.29004 6.29004 11.7698 6.29004 18.5C6.29004 25.2302 11.7698 30.71 18.5 30.71C25.2303 30.71 30.71 25.2302 30.71 18.5C30.71 11.7698 25.2303 6.29004 18.5 6.29004ZM18.5 8.51004C24.0305 8.51004 28.49 12.9696 28.49 18.5C28.49 24.0304 24.0305 28.49 18.5 28.49C12.9696 28.49 8.51004 24.0304 8.51004 18.5C8.51004 12.9696 12.9696 8.51004 18.5 8.51004ZM18.5 9.99004C17.887 9.99004 17.39 10.487 17.39 11.1V18.5C17.39 19.1131 17.887 19.61 18.5 19.61H25.16C25.7731 19.61 26.27 19.1131 26.27 18.5C26.27 17.887 25.7731 17.39 25.16 17.39H19.61V11.1C19.61 10.487 19.1131 9.99004 18.5 9.99004Z" fill="#69A54D"/>
</svg>
